<svg width="29224" height="1685" viewBox="0 0 29224 1685" fill="none" xmlns="http://www.w3.org/2000/svg">
<path d="M26 137.859C220.511 556.367 188.236 1568.86 344.421 1279.58C539.652 917.973 683.734 -207.227 878.245 137.859C1072.76 482.945 1168.57 1624.67 1322.02 1279.58C1475.46 934.493 1474.02 -176.021 1718.24 137.859C1962.46 451.74 1970.39 1659.54 2128.16 1279.58C2285.93 899.617 2374.54 -343.058 2574.81 137.859C2775.08 618.777 2620.92 1586.12 2942.22 1279.58C3263.52 973.04 3396.08 -174.92 3563.21 137.859C3772.13 528.834 3862.9 1620.99 4079.03 1279.58C4295.15 938.164 4385.2 -198.049 4706.5 227.801C5027.81 653.652 4916.14 1532.89 5174.05 1279.58C5431.96 1026.27 5452.13 -109.942 5898.78 227.801C6345.44 565.545 6218.24 2438.82 6673.22 1279.58C6807.22 938.175 7089.75 -402.96 7336 227.797" stroke="#1A564C" stroke-width="57"/>
<path d="M14564 138.859C14758.5 557.367 14726.2 1569.86 14882.4 1280.58C15077.6 918.973 15221.6 -206.227 15416.1 138.859C15610.6 483.945 15706.4 1625.67 15859.8 1280.58C16013.3 935.493 16011.8 -175.021 16256 138.859C16500.2 452.74 16508.1 1660.54 16665.9 1280.58C16823.6 900.617 16912.2 -342.058 17112.5 138.859C17312.7 619.777 17158.6 1587.12 17479.8 1280.58C17801.1 974.04 17933.6 -173.92 18100.7 138.859C18309.6 529.834 18400.4 1621.99 18616.5 1280.58C18832.6 939.164 18922.6 -197.049 19243.9 228.801C19565.1 654.652 19453.5 1533.89 19711.3 1280.58C19969.2 1027.27 19989.4 -108.942 20436 228.801C20882.6 566.545 20755.4 2439.82 21210.3 1280.58C21344.3 939.175 21626.8 -401.96 21873 228.797" stroke="#1A564C" stroke-width="57"/>
<path d="M7296 138.859C7490.48 557.367 7458.21 1569.86 7614.38 1280.58C7809.58 918.973 7953.64 -206.227 8148.13 138.859C8342.61 483.945 8438.41 1625.67 8591.84 1280.58C8745.27 935.493 8743.83 -175.021 8988.01 138.859C9232.2 452.74 9240.12 1660.54 9397.87 1280.58C9555.62 900.617 9644.22 -342.058 9844.46 138.859C10044.7 619.777 9890.56 1587.12 10211.8 1280.58C10533.1 974.04 10665.6 -173.92 10832.7 138.859C11041.6 529.834 11132.4 1621.99 11348.5 1280.58C11564.6 939.164 11654.6 -197.049 11975.9 228.801C12297.1 654.652 12185.5 1533.89 12443.3 1280.58C12701.2 1027.27 12721.4 -108.942 13168 228.801C13614.6 566.545 13487.4 2439.82 13942.3 1280.58C14076.3 939.175 14358.8 -401.96 14605 228.797" stroke="#1A564C" stroke-width="57"/>
<path d="M21887 138.926C22081.5 557.692 22049.2 1570.81 22205.4 1281.35C22400.7 919.52 22544.7 -206.372 22739.2 138.926C22933.8 484.225 23029.6 1626.65 23183 1281.35C23336.5 936.05 23335 -175.147 23579.2 138.926C23823.5 453 23831.4 1661.54 23989.2 1281.35C24146.9 901.153 24235.5 -342.287 24435.8 138.926C24636.1 620.14 24481.9 1588.08 24803.2 1281.35C25124.5 974.621 25257.1 -174.045 25424.2 138.926C25633.1 530.141 25723.9 1622.97 25940 1281.35C26156.1 939.723 26246.2 -197.189 26567.5 228.924C26888.8 655.036 26777.1 1534.81 27035 1281.35C27293 1027.88 27313.1 -109.028 27759.8 228.924C28206.4 566.875 28079.2 2441.3 28534.2 1281.35C28668.2 939.735 28950.8 -402.226 29197 228.92" stroke="#1A564C" stroke-width="57"/>
</svg>
